<svg width="257" height="362" viewBox="0 0 257 362" fill="none" xmlns="http://www.w3.org/2000/svg">
    <g id="standing girl">
        <path id="Vector" d="M111.229 336.184C103.979 336.184 98.1023 329.927 98.1023 322.209C98.1023 314.49 103.979 308.233 111.229 308.233C118.478 308.233 124.355 314.49 124.355 322.209C124.355 329.927 118.478 336.184 111.229 336.184Z" fill="#3F3D56"/>
        <path id="Vector_2" d="M98.793 346.278V111.802H-2.28882e-05V346.278H98.793ZM97.3715 113.35V344.73H1.42146V113.35H97.3715Z" fill="#3F3D56"/>
        <path id="Vector_3" d="M17.9625 315.998L17.9625 142.859H81.5217V315.998H17.9625Z" fill="#D0CDE1"/>
        <path id="Vector_4" d="M30.3979 201.09L30.3979 159.163H69.0861V201.09H30.3979Z" fill="#0F2334"/>
        <path id="Vector_5" d="M38.229 273.441L22.2169 263.352L31.4615 245.877L47.4735 255.966L38.229 273.441Z" fill="#FF6584"/>
        <path id="Vector_6" d="M52.5055 297.364L52.5055 229.04H71.1587V297.364H52.5055Z" fill="#3F3D56"/>
        <path id="Vector_7" d="M160.201 194.878L187.914 259.182L168.515 270.966L134.027 206.661L160.201 194.878Z" fill="#FFB8B8"/>
        <path id="Vector_8" opacity="0.1" d="M160.201 194.878L187.914 259.182L168.515 270.966L134.027 206.661L160.201 194.878Z" fill="black"/>
        <path id="Vector_9" d="M186.753 250.003L220.074 324.962L238.895 345.559C238.895 345.559 264.811 345.896 254.63 356.701C244.448 367.506 212.978 354.675 212.978 354.675L213.904 358.727L193.541 356.701L194.158 348.598L196.009 347.585C196.009 347.585 194.775 332.053 197.86 329.014C200.945 325.975 192.306 322.261 192.306 322.261L156.825 254.73L186.753 250.003Z" fill="#2F2E41"/>
        <path id="Vector_10" d="M177.164 190.073C177.164 190.073 206.78 208.911 199.068 226.067C191.355 243.223 188.887 244.568 188.887 244.568L173.154 232.122L175.931 225.058L145.081 205.547C145.081 205.547 168.835 185.7 177.164 190.073Z" fill="#FFB8B8"/>
        <path id="Vector_11" d="M195.513 242.298L153.273 315.721L148.957 336.173C148.957 336.173 164.373 357.294 152.965 358.635C141.557 359.976 128.608 340.196 127.991 331.144C127.374 322.091 126.449 316.392 126.449 316.392L123.366 317.733C123.366 317.733 114.116 301.64 118.741 299.629C121.457 298.44 124.237 297.432 127.066 296.611C127.066 296.611 133.849 291.918 140.324 293.594C140.324 293.594 139.09 288.23 140.324 285.883C141.557 283.536 174.484 224.382 174.484 224.382L195.513 242.298Z" fill="#2F2E41"/>
        <path id="Vector_12" d="M122.973 44.2556C113.434 44.2556 105.701 35.913 105.701 25.6218C105.701 15.3307 113.434 6.98804 122.973 6.98804C132.512 6.98804 140.245 15.3307 140.245 25.6218C140.245 35.913 132.512 44.2556 122.973 44.2556Z" fill="#FFB8B8"/>
        <path id="Vector_13" d="M127.513 37.0861C127.513 37.0861 121.328 56.2633 122.875 61.6464C124.421 67.0294 136.791 92.2626 136.791 92.2626L135.244 104.038L104.32 52.226C104.32 52.226 112.051 41.1234 109.886 33.3853L127.513 37.0861Z" fill="#FFB8B8"/>
        <path id="Vector_14" d="M116.064 180.395L125 220.5C125 220.5 169.371 191.517 181.696 192.528C181.696 192.528 154.889 159.163 144.72 159.163C134.552 159.163 116.064 180.395 116.064 180.395Z" fill="#2F2E41"/>
        <path id="Vector_15" d="M93.9984 54.9763C93.9984 54.9763 101.113 42.5359 109.775 53.2952C118.436 64.0545 134.213 92.2977 134.213 92.2977L133.107 84.2596C133.107 84.2596 142.874 92.2977 143.493 102.721C144.111 113.144 146.586 148.112 146.586 148.112L150.608 162.906L112.249 187.114L106.063 175.682C106.063 175.682 82.8622 180.389 80.3875 177.363C77.9128 174.337 94.7973 125.174 94.7973 125.174L93.9984 54.9763Z" fill="#97615B"/>
        <path id="Vector_16" d="M127.878 125.001L146.29 152.74C146.29 152.74 168.384 162.097 164.701 169.784C161.019 177.47 142.3 158.087 142.3 158.087L114.683 131.685L127.878 125.001Z" fill="#FFB8B8"/>
        <path id="Vector_17" opacity="0.1" d="M109.327 57.6957C109.327 57.6957 122.777 81.4368 123.389 99.4122C124 117.388 123.847 115.522 123.847 115.522L130.573 126.036L114.676 135.872L106.575 126.545C106.575 126.545 88.5391 120.779 90.679 104.16C92.8189 87.5417 94.0417 56.6782 97.0986 56.6782C100.156 56.6782 109.327 57.6957 109.327 57.6957Z" fill="black"/>
        <path id="Vector_18" d="M108.887 54.5787C108.887 54.5787 122.518 78.0626 123.138 95.8433C123.757 113.624 122.208 113.959 122.208 113.959L130.573 126.037L115.083 135.095L106.099 122.682C106.099 122.682 87.822 116.979 89.9905 100.54C92.159 84.1013 93.3981 53.5723 96.496 53.5723C99.5939 53.5723 108.887 54.5787 108.887 54.5787Z" fill="#97615B"/>
        <path id="Vector_19" d="M142.612 21.628C142.612 21.628 147.804 -5.75 120.608 1.1002C120.608 1.1002 101.904 -4.28189 93.868 21.0963L85.6667 47.7174L88.8644 46.15L90.0564 49.6839L94.9348 51.474L97.3867 47.0403L98.0241 52.7262L138.459 60.5601C138.459 60.5601 121.035 47.2582 122.225 26.1237L125.42 30.4228L142.612 21.628Z" fill="#2F2E41"/>
    </g>
</svg>